<?xml version="1.0" encoding="utf-8"?>
<!-- Svg Vector Icons : http://www.onlinewebfonts.com/icon -->
<!DOCTYPE svg PUBLIC "-//W3C//DTD SVG 1.1//EN" "http://www.w3.org/Graphics/SVG/1.1/DTD/svg11.dtd">
<svg version="1.1" xmlns="http://www.w3.org/2000/svg" xmlns:xlink="http://www.w3.org/1999/xlink" x="0px" y="0px" viewBox="0 0 1000 1000" enable-background="new 0 0 1000 1000" xml:space="preserve">
<metadata> Svg Vector Icons : http://www.onlinewebfonts.com/icon </metadata>
<g><g transform="translate(0.000000,511.000000) scale(0.100000,-0.100000)"><path d="M5552.4,3696.7c-981.6-58-1704.3-316.9-2438.5-873.4L2770,2560.6l-641.5-123.7c-1225-239.6-1762.2-467.6-1959.3-834.7C80.3,1439.9,76.4,612.9,161.4,439c58-115.9,61.8-115.9,405.8-127.5l351.7-11.6L965.2,524c85,405.8,386.5,734.3,776.8,850.2c629.9,181.6,1275.3-228,1387.4-885l30.9-166.2l738.1-11.6l738.1-7.7L4849.1,609c367.1,517.8,854,885,1437.6,1074.3c405.8,131.4,1027.9,162.3,1449.2,73.4c297.6-61.8,1070.5-409.6,1298.5-583.5c65.7-50.2,231.9-266.7,363.3-479.2c231.9-367.1,251.2-390.3,374.9-390.3H9900v807.7v811.5l-255,224.2c-583.6,514-1371.9,1004.8-2001.8,1240.5C6908.8,3662,6352.4,3747,5552.4,3696.7z M5366.9,2599.2c-7.7-11.6-483.1-11.6-1055-7.7l-1039.5,11.6l239.6,146.8c440.6,270.5,1085.9,490.8,1615.4,560.4l231.9,27.1l11.6-363.3C5374.6,2777,5374.6,2607,5366.9,2599.2z M6812.2,3279.4c440.6-88.9,811.6-216.4,1252.1-425.1c587.4-282.1,633.8-266.6-915.9-270.5H5765v386.4v386.5h332.3C6278.9,3356.7,6599.7,3321.9,6812.2,3279.4z"/><path d="M6507,1463.1c-888.8-239.6-1572.9-935.2-1804.7-1835.6c-73.4-289.8-73.4-892.7,0-1209.6C4938-2583.1,5857.7-3386.9,6866.4-3479.6c1232.8-108.2,2334.2,606.7,2685.8,1754.5C9954.1-411.2,9243,952.9,7902,1428.3C7565.8,1548.1,6881.8,1567.4,6507,1463.1z M7774.5,999.3C8593.8,759.7,9243-117.5,9243-990.9c0-506.3-243.5-1074.3-618.3-1449.2C7306.9-3757.9,5065.5-2830.4,5069.4-971.6c0,548.8,201,1039.5,583.5,1426C6232.6,1038,6974.6,1231.2,7774.5,999.3z"/><path d="M6990,736.5C6854.8,589.7,6959.1,381,7163.9,381c119.8,0,197.1,81.2,197.1,212.5c0,54.1-23.2,123.7-50.2,154.6C7245.1,829.3,7067.3,821.6,6990,736.5z"/><path d="M8083.7,303.7c-42.5-42.5-77.3-112.1-77.3-154.6c0-42.5,34.8-112.1,77.3-154.6c42.5-42.5,112.1-77.3,154.6-77.3c96.6,0,231.9,131.4,231.9,228c0,81.2-170,235.7-255,235.7C8184.1,381,8126.2,346.2,8083.7,303.7z"/><path d="M5888.6,284.4c177.8-351.7,1205.7-2144.8,1225.1-2144.8c19.3,0,166.2,104.4,324.6,231.9l297.6,231.9L6893.4-616C5965.9,245.7,5857.7,342.4,5888.6,284.4z"/><path d="M5463.5-836.3c-88.9-77.3-96.6-104.4-65.7-193.2c50.2-139.1,135.3-193.2,266.6-158.5c146.9,34.8,208.7,185.5,127.6,305.3C5703.1-747.4,5587.2-728.1,5463.5-836.3z"/><path d="M8466.3-793.8c-115.9-54.1-146.9-255-54.1-347.8c185.5-185.5,483.1,88.9,320.8,293.7C8659.5-759,8570.6-739.7,8466.3-793.8z"/><path d="M1807.7,1107.5c-235.7-65.7-506.3-355.5-560.4-599c-61.8-301.4,19.3-564.2,239.6-769c344-328.5,800-324.6,1132.3,3.9C3210.5,334.6,2619.3,1327.8,1807.7,1107.5z"/></g></g>
</svg>